<svg
   xmlns:dc="http://purl.org/dc/elements/1.1/"
   xmlns:cc="http://creativecommons.org/ns#"
   xmlns:rdf="http://www.w3.org/1999/02/22-rdf-syntax-ns#"
   xmlns:svg="http://www.w3.org/2000/svg"
   xmlns="http://www.w3.org/2000/svg"
   xmlns:sodipodi="http://sodipodi.sourceforge.net/DTD/sodipodi-0.dtd"
   xmlns:inkscape="http://www.inkscape.org/namespaces/inkscape"
   version="1.1"
   id="svg36"
   width="2209.5237"
   height="751.74603"
   viewBox="0 0 2209.5237 751.74603"
   sodipodi:docname="prueba2_19pm.svg"
   inkscape:version="1.0 (4035a4fb49, 2020-05-01)">
  <metadata
     id="metadata42">
    <rdf:RDF>
      <cc:Work
         rdf:about="">
        <dc:format>image/svg+xml</dc:format>
        <dc:type
           rdf:resource="http://purl.org/dc/dcmitype/StillImage" />
        <dc:title></dc:title>
      </cc:Work>
    </rdf:RDF>
  </metadata>
  <defs
     id="defs40" />
  <sodipodi:namedview
     inkscape:document-rotation="0"
     pagecolor="#ffffff"
     bordercolor="#666666"
     borderopacity="1"
     objecttolerance="10"
     gridtolerance="10"
     guidetolerance="10"
     inkscape:pageopacity="0"
     inkscape:pageshadow="2"
     inkscape:window-width="1920"
     inkscape:window-height="1017"
     id="namedview38"
     showgrid="false"
     inkscape:zoom="0.47928882"
     inkscape:cx="1179.8674"
     inkscape:cy="585.84349"
     inkscape:window-x="-8"
     inkscape:window-y="-8"
     inkscape:window-maximized="1"
     inkscape:current-layer="g44" />
  <g
     inkscape:groupmode="layer"
     inkscape:label="Image"
     id="g44">
    <path
       style="fill:#aa0000;stroke-width:2.08642"
       d="M 245.4063,624.04007 C 243.85094,621.45524 230.11052,587.68981 172.97668,446.05304 86.291348,231.15711 73.069228,200.37136 63.466035,191.07372 c -2.715705,-2.6293 -9.929973,-6.70051 -16.031703,-9.04714 -8.18741,-3.14875 -11.268738,-5.47199 -11.760777,-8.86731 l -0.666719,-4.6007 h 98.352184 98.35218 l -0.66672,4.6793 c -0.5565,3.90576 -2.81662,5.14161 -13.67175,7.4758 -24.61398,5.29278 -30.14119,16.20636 -21.37966,42.21457 8.36931,24.84392 92.61987,236.29857 97.9844,245.92427 2.37098,4.25431 5.73534,-2.95208 41.8875,-89.72195 l 31.47468,-75.5433 -11.8925,-30.48031 c -28.43496,-72.87836 -39.88413,-88.61014 -67.5892,-92.87118 -10.09329,-1.55236 -14.70848,-4.31455 -14.70848,-8.80304 0,-2.40482 17.91085,-2.87416 109.6824,-2.87416 h 109.68241 l -0.66672,4.63843 c -0.5769,4.01352 -2.67167,4.97307 -15.54858,7.12235 -27.18909,4.53812 -34.43809,11.79957 -30.25038,30.30231 6.16766,27.25073 91.86265,245.86351 96.37715,245.86351 1.91502,0 8.30309,-16.22492 48.87719,-124.14227 43.78447,-116.45616 45.44264,-122.76402 35.96718,-136.82462 -4.74659,-7.04348 -13.42433,-11.46199 -32.28965,-16.44115 -6.61973,-1.74716 -8.86731,-3.37683 -8.86731,-6.42946 0,-3.96205 1.78269,-4.0891 57.37668,-4.0891 55.57395,0 57.37668,0.12834 57.37668,4.0849 0,2.68829 -3.38836,6.01901 -9.91052,9.74193 -22.865,13.05159 -16.54192,-1.41159 -132.6023,303.30971 -43.8941,115.24577 -53.548,138.85114 -56.99451,139.36069 -8.59949,1.27138 -10.02337,-1.84663 -59.82945,-131.01499 -49.36187,-128.01633 -60.24762,-154.87202 -62.02678,-153.02309 -1.56909,1.63066 -18.04398,39.83019 -83.09355,192.66516 -32.22881,75.72209 -39.61544,90.56295 -45.49213,91.4004 -2.47367,0.3525 -4.95361,-0.11684 -5.51098,-1.04321 z"
       id="path50" />
    <path
       style="fill:#550000;stroke-width:2.08642"
       d="m 839.28239,621.11333 c -40.89695,-6.83158 -75.6999,-38.14612 -91.85239,-82.64574 -9.17035,-25.26403 -11.7363,-41.38955 -11.71731,-73.63672 0.0318,-54.05626 12.1018,-88.36361 42.99336,-122.20308 39.15165,-42.88781 94.21181,-56.06461 141.15923,-33.78173 19.98242,9.48435 42.50269,32.85336 53.8085,55.83642 9.73526,19.79034 16.48584,45.06143 18.53156,69.37362 l 1.36058,16.16979 H 907.7747 821.98347 l 0.9157,5.73767 c 0.50364,3.15572 1.88953,11.92323 3.07975,19.48336 4.8418,30.75449 18.04595,59.31873 35.47972,76.7525 14.3155,14.3155 26.63566,19.84052 46.35045,20.78607 13.77527,0.66066 17.6802,0.0167 27.71221,-4.5771 15.26438,-6.98827 27.4772,-17.17234 37.69549,-31.43368 8.45117,-11.79501 10.27132,-12.95131 15.33712,-9.7431 3.98167,2.52163 1.99262,9.07455 -7.49567,24.6944 -23.24909,38.27323 -54.65505,63.01733 -88.01287,69.34349 -13.10035,2.48446 -38.39501,2.41097 -53.76298,-0.15606 z m 73.2778,-208.96469 c -3.85257,-54.38809 -8.3134,-71.51982 -21.79378,-83.69853 -15.03122,-13.5798 -31.46336,-12.05448 -45.81784,4.25307 -12.90208,14.65755 -20.46904,39.8538 -24.17242,80.48868 l -1.47369,16.16979 h 47.23851 47.2385 z"
       id="path52" />
    <path
       style="fill:#800000;stroke-width:2.08642"
       d="M 244.05332,617.66147 C 242.59996,614.50575 211.545,538.22085 175.04226,448.13947 67.082681,181.71696 72.579142,193.55769 52.056428,183.19785 45.220257,179.74696 38.61975,175.0414 37.388636,172.74104 c -2.225331,-4.15807 -1.666953,-4.18247 95.701644,-4.18247 94.72242,0 97.90644,0.12847 96.91742,3.91048 -0.72104,2.75725 -4.94916,4.97334 -14.33721,7.51457 -27.73035,7.50626 -30.06484,18.33249 -13.49018,62.56105 12.17386,32.48527 78.5529,199.0351 86.37945,216.73236 3.43298,7.76259 6.2193,11.58638 7.75234,10.63889 3.15818,-1.95185 9.56678,-16.22683 43.02834,-95.84453 15.43305,-36.72107 28.05164,-68.64337 28.04129,-70.93843 -0.0167,-3.60909 -15.07039,-42.09967 -29.37694,-75.11129 -6.66934,-15.38916 -20.50741,-35.02332 -28.58542,-40.55845 -3.89504,-2.66893 -12.37516,-6.08306 -18.84473,-7.58696 -11.35436,-2.63941 -17.29786,-5.88121 -14.99837,-8.18069 0.60797,-0.60797 49.71833,-1.71733 109.13412,-2.46523 l 108.02872,-1.35984 -2.40417,4.49225 c -1.32231,2.47074 -4.48959,4.91899 -7.0384,5.44056 -31.50979,6.44794 -39.06025,11.10492 -39.06025,24.0916 0,12.34789 27.8198,89.41911 67.79764,187.82467 23.49635,57.83634 27.84834,67.22318 30.72237,66.26516 1.35098,-0.45031 5.13605,-7.3289 8.41128,-15.28575 11.33815,-27.54488 67.87748,-179.38082 74.34844,-199.66211 12.12887,-38.01436 7.97213,-50.0002 -20.81275,-60.01301 -8.33153,-2.89812 -15.4906,-6.29641 -15.90905,-7.55175 -1.11065,-3.33195 48.2502,-5.63037 82.04533,-3.82032 18.49056,0.99034 27.93929,2.29345 27.93681,3.85287 -0.002,1.29601 -4.02327,4.89562 -8.93603,7.99913 -21.51868,13.59384 -23.15915,17.18591 -101.28375,221.77754 -80.42696,210.62102 -84.27933,220.1178 -89.29082,220.1178 -6.00813,0 -7.1424,-2.62773 -61.69182,-142.92009 -37.87827,-97.41677 -54.19035,-137.70269 -56.82288,-140.3352 -0.65666,-0.65667 -1.63208,-0.75578 -2.16761,-0.22026 -0.53552,0.53552 -25.33422,57.8339 -55.10821,127.32974 -29.77399,69.49584 -56.67069,131.41569 -59.77047,137.59968 -9.77044,19.4918 -15.00286,22.90219 -19.65145,12.80846 z"
       id="path54" />
    <path
       style="fill:#800000;stroke-width:2.08642"
       d="m 830.45921,618.01501 c -30.94073,-8.32099 -58.53289,-32.09795 -74.21369,-63.95204 -12.0445,-24.46729 -17.65005,-46.56167 -19.19826,-75.67034 -3.17066,-59.61338 11.70094,-103.40954 47.15756,-138.87674 52.23166,-52.24727 124.14972,-53.24298 169.04224,-2.34041 18.58754,21.07597 33.09997,55.6976 36.46433,86.99128 0.73897,6.87356 1.81609,15.54877 2.39361,19.27825 l 1.05006,6.78088 H 907.5171 c -80.17155,0 -85.63753,0.23307 -85.63129,3.65125 0.0186,10.1739 7.26827,42.986 12.44074,56.30678 7.76902,20.00772 16.82661,33.75048 30.45132,46.2027 13.8125,12.62383 25.74753,16.93833 46.85596,16.93833 22.62355,0 36.5473,-7.19788 56.83632,-29.38149 8.30879,-9.08469 16.28052,-16.51812 17.71494,-16.51873 9.71199,-0.004 -13.09107,38.69481 -35.14234,59.63993 -16.47856,15.65192 -28.13328,23.13822 -45.70662,29.35918 -11.35678,4.02029 -17.63248,4.7857 -38.59885,4.70756 -15.0023,-0.0559 -29.54245,-1.30495 -36.27807,-3.11639 z m 82.69934,-211.08243 c -4.68741,-62.36271 -14.89607,-84.78802 -39.87994,-87.60407 -29.41223,-3.31518 -47.15792,29.08647 -54.26368,99.07941 l -1.11203,10.95373 h 48.47075 48.47075 z"
       id="path56" />
    <path
       style="fill:#800000;stroke-width:2.08642"
       d="M 496.98774,621.72203 C 493.045,619.21671 485.25675,600.60656 443.55384,494.04081 394.18822,367.89418 383.2187,341.16807 380.43824,340.26645 c -2.78564,-0.9033 1.79337,-10.97946 -57.55544,126.65084 -27.46354,63.68811 -53.87891,123.74534 -58.70083,133.46051 -8.27106,16.66452 -14.11274,23.58726 -17.2535,20.44648 -0.76121,-0.76121 -33.99216,-81.47263 -73.84654,-179.35872 C 66.826512,180.49231 72.409106,192.46825 52.24963,182.25267 c -18.443935,-9.34624 -17.570065,-10.8081 7.373184,-12.33427 49.024496,-2.99959 169.711736,-0.89344 169.711736,2.96169 0,0.87865 -6.28148,3.68788 -13.95884,6.24274 -7.67737,2.55487 -16.12739,6.81375 -18.77783,9.46418 -6.74214,6.74215 -6.36229,20.55659 1.17396,42.69452 10.72684,31.51041 83.92014,215.33616 92.39787,232.05821 2.2022,4.34379 4.92475,7.32873 6.05011,6.63322 4.31162,-2.66472 26.16587,-51.83868 57.39766,-129.14973 l 15.11719,-37.421 -6.19789,-16.82604 c -11.36312,-30.84853 -27.00476,-66.38726 -33.94994,-77.13623 -12.7007,-19.65676 -20.71668,-25.86441 -39.50948,-30.59649 -25.25095,-6.35826 -10.0481,-7.61825 111.86562,-9.27126 54.08551,-0.73334 89.19465,-0.45014 89.19465,0.71945 0,3.44533 -5.18188,6.35349 -15.40205,8.64387 -22.66936,5.08031 -30.49929,10.94285 -30.49929,22.83587 0,13.45066 21.49579,74.04611 62.60244,176.47284 24.95157,62.17258 32.2324,78.24093 35.45226,78.24093 3.52413,0 9.27378,-13.82378 41.22017,-99.10517 41.4674,-110.69778 46.82586,-126.66481 48.01673,-143.07933 0.94262,-12.99271 0.65566,-14.108 -5.40645,-21.01237 -4.25772,-4.84928 -11.50567,-9.30049 -21.64027,-13.29005 -13.41162,-5.27957 -14.61307,-6.17482 -10.02231,-7.46799 6.6013,-1.85953 86.954,-2.3334 95.79623,-0.56495 3.63088,0.72617 6.33019,2.028 5.99847,2.89294 -0.3317,0.86495 -4.82811,4.7695 -9.99201,8.67677 -18.84933,14.26239 -23.99049,25.62948 -92.78214,205.14135 -72.81069,189.99959 -90.68196,234.8737 -93.46642,234.69082 -0.26754,-0.0167 -1.62891,-0.75791 -3.02525,-1.64516 z"
       id="path58" />
    <path
       style="fill:#2b0000;stroke-width:2.08642"
       d="m 492.35606,615.31218 c -5.01981,-9.83964 -15.47177,-35.89821 -59.93882,-149.4381 -37.03394,-94.56049 -50.29644,-126.22869 -52.86406,-126.22869 -0.89981,0 -2.11006,1.17361 -2.68944,2.60803 -0.57938,1.43442 -22.26726,51.69732 -48.19528,111.69534 -70.24961,162.55911 -72.53426,167.36395 -79.57931,167.36395 -3.15494,0 2.34379,13.00314 -79.85897,-188.84632 C 95.5764,251.60906 78.912555,212.25559 70.072513,198.29488 66.492348,192.64088 60.376015,187.1271 53.178134,183.06487 33.885579,172.17683 34.284653,171.25776 59.037605,169.5706 c 27.781748,-1.89361 167.364655,-0.46695 169.564705,1.7331 2.20957,2.20957 -2.22531,4.785 -15.43915,8.96583 -22.97059,7.26784 -26.16401,18.2638 -14.99055,51.61723 7.30329,21.80076 85.80298,219.36079 91.94917,231.40833 4.60372,9.02404 6.47891,8.65094 12.12284,-2.41207 12.65757,-24.81087 64.79396,-151.81832 64.79396,-157.84205 0,-6.02767 -22.94646,-63.87887 -33.06641,-83.365 -11.17777,-21.52298 -25.38517,-35.27708 -41.00167,-39.69344 -17.22794,-4.87207 -18.05592,-6.5968 -3.84158,-8.00216 23.91217,-2.36418 201.00871,-3.97756 201.00871,-1.83122 0,3.7827 -5.14946,6.42972 -19.54085,10.04471 -18.41094,4.62468 -26.36886,11.09436 -26.33666,21.41137 0.0432,13.84408 34.61347,109.33909 74.42078,205.57589 17.76253,42.94206 20.83174,49.30405 23.78574,49.30405 1.18121,0 4.36136,-5.00559 7.06701,-11.12352 7.507,-16.9747 62.61373,-164.60939 73.13394,-195.93087 15.41726,-45.90135 13.06173,-55.36274 -17.05207,-68.49261 -14.06593,-6.13285 -15.47796,-7.21473 -11.03523,-8.45498 6.53877,-1.8254 86.96062,-2.26072 95.6748,-0.51788 3.63088,0.72617 6.33019,2.03223 5.99847,2.90236 -0.3317,0.87012 -5.3907,5.3498 -11.24222,9.95485 -18.1298,14.26785 -21.6554,22.25359 -100.59164,227.84773 -73.97473,192.67159 -81.3386,210.72889 -85.93637,210.72889 -1.10088,0 -3.85815,-3.63912 -6.12727,-8.08696 z"
       id="path60" />
    <path
       style="fill:#2b0000;stroke-width:2.08642"
       d=""
       id="path62" />
    <path
       style="fill:#800000;stroke-width:2.08642"
       d="m 846.05386,618.92553 c -15.44615,-1.23583 -21.23469,-2.79155 -34.16539,-9.18225 -36.62097,-18.09907 -63.49111,-58.62993 -71.40376,-107.70533 -3.99713,-24.79078 -1.7559,-76.1249 4.1295,-94.58376 15.38267,-48.24597 50.86117,-86.31894 94.65186,-101.57358 17.18973,-5.9881 47.54673,-6.41906 63.98364,-0.90833 46.48443,15.58461 77.41384,60.06229 86.13664,123.86776 l 2.92364,21.38585 h -85.21542 -85.21542 l 0.003,7.8241 c 0.005,13.2909 9.96867,49.78503 17.88484,65.50444 8.5877,17.0529 24.62303,35.08073 38.41668,43.19023 8.57653,5.04228 11.37581,5.53707 31.3256,5.53707 27.44849,0 33.82925,-2.94075 57.83421,-26.65445 9.43191,-9.31747 17.75998,-16.32984 18.5068,-15.583 4.47294,4.47294 -12.15733,31.45688 -32.14962,52.16529 -31.214,32.33209 -56.1474,40.83636 -107.64651,36.71596 z m 68.79766,-202.60404 c -3.88364,-38.17953 -5.93015,-51.8832 -9.63849,-64.54034 -6.51293,-22.22966 -18.19627,-33.00748 -35.76411,-32.99221 -24.51163,0.0213 -40.56283,26.4273 -48.48161,79.75754 -1.79356,12.07898 -3.26101,23.9538 -3.26101,26.38848 0,4.38624 0.44984,4.42669 49.23584,4.42669 h 49.23583 z"
       id="path64" />
    <path
       style="fill:#d40000;stroke-width:2.08642"
       d="m 1142.6949,621.24426 c -37.9017,-6.382 -67.6656,-29.77568 -86.1866,-67.74035 -14.2036,-29.11472 -18.5094,-49.80924 -18.4499,-88.67304 0.071,-46.38962 6.8544,-72.09819 27.0325,-102.45041 19.7866,-29.76321 52.3963,-53.57237 84.3569,-61.59097 16.914,-4.24355 43.7885,-2.85526 61.0253,3.15246 46.8663,16.33479 78.1488,65.05594 84.2124,131.15737 l 1.3876,15.12657 h -85.8312 c -47.2071,0 -85.8312,0.81591 -85.8312,1.81313 0,5.5449 6.8585,40.40183 9.7012,49.30428 10.1892,31.90923 32.2495,59.48565 54.2168,67.77345 14.8177,5.59035 38.9809,5.15677 50.8354,-0.91218 13.364,-6.84174 27.0827,-18.59658 36.0088,-30.85411 8.851,-12.1543 12.7996,-13.92661 16.8162,-7.54785 3.8063,6.04464 -13.6657,33.54107 -35.0904,55.22355 -28.3189,28.65954 -51.9947,38.71809 -89.7163,38.11549 -8.0327,-0.12831 -19.0521,-0.98214 -24.4875,-1.89739 z m 72.5198,-204.92277 c -5.3805,-62.93031 -7.179,-70.82847 -19.3775,-85.09585 -12.6881,-14.84 -29.8394,-15.8743 -44.4438,-2.68016 -15.3109,13.83248 -24.7577,41.92497 -28.2731,84.07682 l -1.396,16.73935 h 47.3027 47.3026 z"
       id="path66" />
    <path
       style="fill:#ff0000;stroke-width:2.08642"
       d="m 1424.8559,621.56961 c -19.5745,-4.318 -42.2426,-22.6434 -51.6137,-41.72555 l -5.763,-11.73517 -0.6636,-114.03519 -0.6636,-114.03519 -19.5088,-0.71817 c -10.7299,-0.39499 -20.1309,-1.34192 -20.8913,-2.10429 -2.7848,-2.7921 3.6074,-10.27998 21.4169,-25.08802 33.0356,-27.46802 61.888,-59.21368 84.0262,-92.45206 14.0706,-21.12564 18.4846,-26.08031 23.2345,-26.08031 3.5956,0 3.8092,3.21704 3.8092,57.37668 v 57.37668 h 36.5124 36.5124 v 15.64818 15.64819 h -36.5124 -36.5124 l 0.068,102.75641 c 0.038,56.51603 0.9141,109.32494 1.9478,117.35315 1.6043,12.45906 2.8214,15.4382 8.3104,20.34264 7.309,6.53059 17.6498,7.6028 26.8112,2.77997 3.0987,-1.63127 10.2932,-7.73406 15.9878,-13.56176 10.8143,-11.06723 13.7302,-12.38564 17.4582,-7.89368 3.3064,3.98401 -8.2192,22.96872 -22.2762,36.69274 -16.4465,16.05692 -31.9601,22.76555 -55.6099,24.04765 -10.3278,0.55992 -22.064,0.2931 -26.0803,-0.5929 z"
       id="path68" />
    <path
       style="fill:#ff2a2a;stroke-width:2.08642"
       d="m 1678.3565,621.94171 c -9.0928,-1.20894 -25.6932,-6.74938 -36.6422,-12.22939 -50.551,-25.30103 -83.1257,-96.14702 -75.5166,-164.23941 5.556,-49.71903 25.6427,-89.95298 58.5877,-117.35195 23.0627,-19.18022 44.9068,-27.38504 78.6815,-29.5534 35.8452,-2.3013 67.8896,8.04792 88.3879,28.5462 18.7817,18.7817 26.0095,37.38671 22.2694,57.32335 -1.578,8.41111 -13.1568,22.58714 -22.3188,27.325 -11.7322,6.06698 -34.4296,2.71856 -45.6668,-6.73698 -9.1755,-7.72065 -13.5506,-17.61505 -18.7845,-42.48155 -5.9883,-28.45069 -10.8931,-37.60963 -22.2514,-41.55087 -7.8864,-2.73654 -9.4371,-2.65345 -17.3874,0.93162 -20.8886,9.41946 -33.1108,42.11615 -33.2799,89.03013 -0.2009,55.72838 16.6475,109.8432 42.7047,137.16147 15.6455,16.40264 27.9346,21.79158 50.0684,21.95565 20.3004,0.15044 32.5358,-4.07199 47.7811,-16.48947 18.9337,-15.42174 21.8352,-16.89943 25.6644,-13.07028 3.0091,3.00908 2.886,4.0032 -1.3963,11.27569 -30.1509,51.20451 -83.5305,77.78201 -140.9012,70.15419 z"
       id="path70" />
    <path
       style="fill:#800000;stroke-width:2.08642"
       d="m 1863.3737,611.4022 c 0.3841,-2.07936 6.2017,-6.34591 13.5132,-9.91052 7.0613,-3.4426 14.3377,-7.54785 16.1698,-9.12277 3.007,-2.58487 3.3311,-22.11153 3.3311,-200.6763 v -197.8128 l -6.1214,-4.35884 c -3.3668,-2.39736 -10.1354,-5.77505 -15.0414,-7.50599 -4.906,-1.73093 -9.6481,-4.29312 -10.538,-5.69375 -4.8083,-7.56772 -3.2525,-7.76266 61.954,-7.76266 h 63.6359 v 87.62983 c 0,48.19641 0.6001,87.62984 1.3335,87.62984 0.7334,0 7.2661,-5.2086 14.5171,-11.57468 45.4596,-39.91126 91.7693,-45.13025 127.6829,-14.38954 11.7711,10.07564 20.1047,22.56289 24.329,36.45493 4.0422,13.29337 6.5703,58.39402 9.1192,162.68253 1.607,65.752 2.4926,74.88053 7.8695,81.11664 0.3743,0.43411 5.6457,2.40294 11.7143,4.37515 8.2771,2.68997 11.2004,4.70817 11.7005,8.07801 l 0.6667,4.49216 h -78.386 c -76.7731,0 -78.386,-0.0851 -78.386,-4.13769 0,-2.86746 3.191,-5.75476 10.3945,-9.40506 18.7102,-9.48116 17.6841,-3.01405 18.4214,-116.10446 0.741,-113.67543 -0.234,-127.12881 -9.8376,-135.73847 -16.8981,-15.14927 -38.425,-7.98074 -62.2795,20.73927 l -8.2424,9.92364 1.392,103.27802 c 1.5152,112.41253 1.5232,112.48274 13.3882,116.88902 14.6869,5.45427 15.8991,6.24252 15.8991,10.33815 0,4.15864 -1.1101,4.21758 -79.4371,4.21758 -74.5205,0 -79.3954,-0.22598 -78.7625,-3.65124 z"
       id="path72" />
    <path
       style="fill:#800000;stroke-width:2.08642"
       d="m 1418.1013,618.28633 c -18.0884,-6.95029 -35.1806,-22.59078 -44.0888,-40.34396 l -4.9342,-9.83348 L 1368,454.81546 c -0.5931,-62.31138 -1.5549,-113.77002 -2.1374,-114.35253 -0.5825,-0.58251 -9.6113,-1.61317 -20.0639,-2.29037 -11.4978,-0.74491 -19.0048,-2.12423 -19.0048,-3.49192 0,-1.24336 6.3375,-7.88929 14.0834,-14.76873 41.3455,-36.72081 67.7183,-66.07108 99.0938,-110.28125 5.4445,-7.67171 11.1648,-13.94857 12.7117,-13.94857 2.1977,0 3.1111,7.86814 4.1779,35.99082 0.7508,19.79496 1.3681,45.14502 1.3716,56.33347 l 0.01,20.34264 h 36.5124 36.5124 v 15.64818 15.64819 h -36.5963 -36.5962 l 0.6054,114.23175 c 0.6439,121.47289 0.518,119.97221 10.7602,128.26871 5.7717,4.6753 21.6552,4.82146 28.5015,0.26226 2.8373,-1.88944 9.5461,-7.651 14.9085,-12.80343 6.5922,-6.33405 10.8599,-8.94208 13.1774,-8.0528 3.0194,1.15865 2.7279,2.61099 -2.4474,12.19661 -8.5374,15.81278 -25.9302,32.31177 -41.9794,39.82213 -11.8321,5.53689 -16.3695,6.4588 -34.6564,7.04149 -14.6956,0.46826 -23.3935,-0.2332 -28.8395,-2.32578 z"
       id="path74" />
    <path
       style="fill:#800000;stroke-width:2.08642"
       d="m 1660.684,616.00347 c -42.3544,-14.7105 -73.3577,-50.64616 -88.1223,-102.14163 -6.75,-23.54208 -6.7052,-73.1796 0.088,-98.06195 9.5317,-34.91101 29.5014,-67.43305 53.2939,-86.79258 24.9198,-20.2768 50.5663,-28.92681 85.7954,-28.93692 34.2596,-0.01 60.1635,9.53264 79.857,29.41777 15.1171,15.2642 21.3345,28.32904 21.3345,44.8307 0,11.45262 -0.806,14.04676 -6.8114,21.92031 -3.7463,4.91173 -9.8554,10.70814 -13.5757,12.88091 -12.051,7.03822 -35.7249,3.79759 -47.0457,-6.43992 -6.2836,-5.6823 -11.6005,-17.83427 -16.1092,-36.8183 -8.2158,-34.59324 -13.4705,-43.8255 -26.3152,-46.23519 -9.9226,-1.86149 -16.3753,0.31279 -25.5635,8.61377 -15.6656,14.15287 -23.0592,41.17113 -23.1046,84.42981 -0.061,58.35424 15.9494,109.32356 43.0658,137.09779 13.5294,13.85766 26.3816,19.76445 45.7299,21.01721 21.2358,1.37493 34.5721,-3.09006 54.8351,-18.35866 9.1125,-6.86645 17.6293,-12.48444 18.9264,-12.48444 15.3936,0 -21.2178,46.14458 -50.1192,63.1696 -21.2743,12.53217 -36.7238,16.66794 -65.5364,17.54389 -22.6857,0.68968 -26.5008,0.25279 -40.6231,-4.65217 z"
       id="path76" />
    <path
       style="fill:#800000;stroke-width:2.08642"
       d="m 1131.7132,617.41821 c -19.2932,-5.54392 -34.1537,-14.51483 -49.4657,-29.86113 -11.0823,-11.10719 -16.174,-18.50169 -24.4554,-35.51583 -15.431,-31.7027 -17.7623,-43.40191 -17.5863,-88.2536 0.1225,-31.19493 0.8819,-40.26039 4.484,-53.52537 13.1665,-48.48646 51.1503,-90.09744 96.2917,-105.48672 25.2326,-8.60212 60.6746,-5.5609 84.1604,7.22165 35.4234,19.27986 61.5596,63.80283 67.1628,114.41178 0.7515,6.78786 1.852,14.92352 2.4454,18.07924 l 1.079,5.73766 h -85.7092 -85.7092 v 6.29568 c 0,13.50148 8.9353,47.48541 16.8017,63.90241 9.2412,19.28635 24.9509,37.77518 39.1847,46.11677 8.0112,4.69485 12.5908,5.71862 28.741,6.42496 26.6929,1.16746 37.2143,-3.72809 60.8015,-28.29063 12.469,-12.98457 17.9253,-17.37299 19.5636,-15.73473 3.8881,3.88816 -1.4268,15.14323 -16.5719,35.0936 -22.3718,29.46992 -49.0095,49.38707 -73.6485,55.06738 -14.7155,3.39253 -53.2461,2.43275 -67.5696,-1.68312 z m 83.0625,-217.78811 c -4.5016,-49.16812 -10.6237,-66.72244 -26.7438,-76.68521 -14.2429,-8.80263 -33.5415,-2.85581 -45.0595,13.88501 -10.9976,15.98448 -16.5058,37.09714 -21.5554,82.62123 l -1.0993,9.91052 h 48.59 48.5901 z"
       id="path78" />
    <path
       style="fill:#800000;stroke-width:2.08642"
       d="M 247.49331,619.8838 C 245.61238,616.78799 225.26942,567.48602 173.6151,440.83698 70.927242,189.06098 73.560583,194.62153 50.125637,180.0774 c -6.957141,-4.31772 -8.465168,-6.1315 -6.259274,-7.52833 3.779931,-2.39355 180.697077,-2.47362 182.174907,-0.0824 0.6192,1.0019 -4.63583,3.92244 -11.67786,6.49009 -7.04204,2.56766 -15.12496,6.98973 -17.96206,9.82683 -8.11874,8.11874 -5.88313,25.64067 7.93462,62.18879 20.79452,55.00172 83.28081,210.20801 86.78035,215.54901 l 3.4962,5.33588 4.6468,-5.40221 c 4.72273,-5.49051 32.01942,-68.1223 55.26718,-126.80963 9.67498,-24.4238 12.5806,-34.12702 11.87082,-39.64207 -1.09557,-8.51276 -17.03234,-49.66211 -28.99269,-74.86018 -10.66526,-22.46964 -27.10115,-39.87062 -42.86931,-45.38655 -6.02455,-2.10747 -10.95373,-4.40539 -10.95373,-5.10649 0,-2.35643 52.64984,-3.98812 128.95986,-3.99665 48.39379,-0.005 75.30441,0.72226 74.50569,2.01463 -0.68769,1.1127 -7.74642,3.9577 -15.68606,6.32223 -18.82748,5.60707 -27.12479,12.45603 -27.12479,22.38997 0,14.60338 20.82233,74.39777 59.45567,170.73575 27.48704,68.543 34.33623,83.32593 38.60629,83.32593 1.7213,0 5.17375,-4.27428 7.67211,-9.49837 5.94773,-12.43676 61.12544,-160.08174 72.86442,-194.97125 15.26003,-45.35444 12.83708,-56.39334 -15.43274,-70.31167 l -13.98639,-6.88604 47.94262,-0.562 c 26.36844,-0.3091 49.21254,-0.0747 50.76467,0.52093 1.86935,0.71734 -1.15843,4.72087 -8.96862,11.85895 -18.16873,16.60519 -21.86404,24.98674 -95.97624,217.68883 C 537.941,531.3046 505.35384,613.42 501.92393,618.1107 c -1.54417,2.11175 -3.781,3.23794 -4.97074,2.50264 -2.89404,-1.78861 -12.36217,-24.6906 -56.64038,-137.00461 -47.93769,-121.59651 -56.99509,-142.92009 -60.7067,-142.92009 -1.93284,0 -20.32367,40.1043 -52.62305,114.75336 -63.95093,147.80096 -75.31581,171.31167 -79.48975,164.44184 z"
       id="path80" />
  </g>
</svg>
